# xmcd
# Copyright (C) 1995-1998 Ti Kan
#
# Track frame offsets:
#       150
#       16228
#       32708
#       47818
#       63934
#       77221
#       97598
#       120403
#       130129
#       144894
#       160462
#       174887
#       192307
#       209258
#       229813
#       248601
#       274569
#
# Disc length: 4325 seconds
#
# Revision: 1
# Processed by: cddbd v1.4PL0 Copyright (c) Steve Scherf et al.
# Submitted via: CD-Transfer v1.0
#
DISCID=d410e311
DTITLE=Hang Loose - Rest Off...
DYEAR=2003
DGENRE=
TTITLE0=Turn On Your Radio
TTITLE1=Heart Of Stone
TTITLE2=Sitting On The Docks
TTITLE3=Foolish
TTITLE4=Come Alive
TTITLE5=Wonder Why
TTITLE6=Red Diva
TTITLE7=Have A Drink On Me
TTITLE8=Sandy Beach
TTITLE9=S. O. S.
TTITLE10=Music
TTITLE11=Don't Wanna Get Along
TTITLE12=Fine Day
TTITLE13=Shoreline
TTITLE14=The Glow Of Candles
TTITLE15=Campion Of The Ice
TTITLE16=Datatrack
EXTD=
EXTT0=
EXTT1=
EXTT2=
EXTT3=
EXTT4=
EXTT5=
EXTT6=
EXTT7=
EXTT8=
EXTT9=
EXTT10=
EXTT11=
EXTT12=
EXTT13=
EXTT14=
EXTT15=
EXTT16=
PLAYORDER=
